<svg width="16" height="16" viewBox="0 0 16 16" fill="none" xmlns="http://www.w3.org/2000/svg">
<path d="M13.9431 2.46291C13.9068 2.37511 13.853 2.2928 13.7819 2.22126L13.7803 2.21967L13.7787 2.21808C13.6431 2.08329 13.4563 2 13.25 2H4.25C3.83579 2 3.5 2.33579 3.5 2.75C3.5 3.16421 3.83579 3.5 4.25 3.5H11.4393L2.21967 12.7197C1.92678 13.0126 1.92678 13.4874 2.21967 13.7803C2.51256 14.0732 2.98744 14.0732 3.28033 13.7803L12.5 4.56066V11.75C12.5 12.1642 12.8358 12.5 13.25 12.5C13.6642 12.5 14 12.1642 14 11.75V2.75C14 2.64831 13.9798 2.55134 13.9431 2.46291Z" fill="#757575"/>
</svg>
