<svg width="39" height="16" viewBox="0 0 39 16" fill="none" xmlns="http://www.w3.org/2000/svg">
<path d="M9.62324 2.12155V0H0V15.7348H2.33194V8.64088H7.87324V6.56354H2.33194V2.12155H9.62324Z" fill="#1A1A1A"/>
<path d="M20.5273 10.1215C20.5273 6.69613 18.5876 4.0663 15.1878 4.0663C11.9841 4.0663 9.8483 6.45304 9.8483 10.0331C9.8483 13.7017 12.0495 16 15.2314 16C17.9338 16 19.6991 14.453 20.2658 12.2431H18.0646C17.6723 13.3923 16.7352 14.1436 15.275 14.1436C13.4661 14.1436 12.2456 13.0829 12.0495 10.7624H20.5273V10.1215ZM15.1878 5.92265C17.0185 5.92265 18.0864 7.24862 18.2825 9.01657H12.0713C12.3546 6.91713 13.5533 5.92265 15.1878 5.92265Z" fill="#1A1A1A"/>
<path d="M36.3038 4.33149L34.8436 9.08287C34.4513 10.4309 34.059 11.779 33.6886 13.1271C33.3181 11.779 32.9258 10.4309 32.5335 9.08287L31.1169 4.33149H28.9375L27.4991 9.08287C27.085 10.453 26.7145 11.779 26.3658 13.1492C25.9953 11.8011 25.603 10.453 25.189 9.08287L23.7506 4.33149H21.3968L25.1236 15.7348H27.4337L28.9593 10.7182C29.3298 9.52486 29.6785 8.26519 30.0054 7.04972C30.3323 8.26519 30.681 9.52486 31.0733 10.7182L32.6207 15.7348H34.909L38.6358 4.33149H36.3038Z" fill="#1A1A1A"/>
</svg>
